<svg width="178" height="46" viewBox="0 0 178 46" fill="none" xmlns="http://www.w3.org/2000/svg">
<g clip-path="url(#clip0_382_316)">
<path d="M178 -0.000331879H0.000976562V45.2539H178V-0.000331879Z" fill="white"/>
<path d="M0 37.5303H9.55911V38.7207H0V37.5303ZM0 29.9059H9.55911V31.0956H0V29.9059ZM0 21.9963H9.55911V23.1882H0V21.9963ZM0 14.1932H9.55911V15.3851H0V14.1932ZM0 6.59246H9.55911V7.7843H0V6.59246Z" fill="#E30613"/>
<path d="M168.436 37.5303H177.997V38.7207H168.436V37.5303ZM168.436 29.9059H177.997V31.0956H168.436V29.9059ZM168.436 21.9963H177.997V23.1882H168.436V21.9963ZM168.436 14.1932H177.997V15.3851H168.436V14.1932ZM168.436 6.59246H177.997V7.7843H168.436V6.59246Z" fill="#E30613"/>
<path d="M43.366 15.9329C45.5554 8.15552 39.2011 5.78828 32.5174 5.78828C25.7418 5.78828 18.5659 7.88884 16.5767 15.5304C15.8354 19.0172 16.8164 21.9664 19.7865 23.3985C26.171 26.4807 33.0111 25.5434 32.0754 29.9225C31.6211 32.0667 28.7486 33.1384 26.679 33.1384C23.4484 33.1384 21.564 31.4862 22.2522 28.4476H13.2801C11.5449 37.2073 17.7213 39.4072 25.2589 39.4072C32.7499 39.4072 40.167 36.177 41.6158 29.3856C43.4708 20.6702 35.6942 20.1326 30.5576 18.7484C28.3152 18.1228 25.6077 17.3628 26.1093 14.9934C26.4551 13.3833 28.534 12.0442 30.5957 12.0442C32.1206 12.0442 33.2149 12.4031 33.8342 13.073C34.4987 13.7437 34.7018 14.6831 34.3954 15.9329H43.366ZM69.3172 38.728L70.6541 32.4699H54.9545L56.4105 25.6306H70.8572L72.1862 19.374H57.7424L59.1639 12.7148H74.8635L76.2004 6.4582H51.5301L44.6426 38.728H69.3172ZM74.3856 38.728H82.46L87.7322 14.0125H87.8205L93.5404 38.728H105.966L112.852 6.4582H104.778L99.6637 30.4123L99.5582 30.5031L93.8311 6.4582H81.2724L74.3856 38.728ZM118.257 38.728L121.711 32.4256H134.855L135.663 38.728H145.802L139.901 6.4582H128.956L109.285 38.728H118.257ZM125.33 26.1676L132.589 12.7592H132.725L133.988 26.1676H125.33ZM158.179 38.728L165.066 6.4582H156.095L149.212 38.728H158.179Z" fill="#E30613"/>
</g>
<defs>
<clipPath id="clip0_382_316">
<rect width="178" height="45.2542" fill="white"/>
</clipPath>
</defs>
</svg>
