<svg width="298" height="77" viewBox="0 0 298 77" fill="none" xmlns="http://www.w3.org/2000/svg">
<g clip-path="url(#clip0_10_966)">
<path d="M297.142 0.213623H0.00317383V76.037H297.142V0.213623Z" fill="white"/>
<path d="M0.000488281 63.095H15.958V65.0882H0.000488281V63.095ZM0.000488281 50.3193H15.958V52.3125H0.000488281V50.3193ZM0.000488281 37.068H15.958V39.0642H0.000488281V37.068ZM0.000488281 23.9936H15.958V25.9898H0.000488281V23.9936ZM0.000488281 11.2592H15.958V13.2564H0.000488281V11.2592Z" fill="black"/>
<path d="M281.176 63.095H297.137V65.0882H281.176V63.095ZM281.176 50.3193H297.137V52.3125H281.176V50.3193ZM281.176 37.068H297.137V39.0642H281.176V37.068ZM281.176 23.9936H297.137V25.9898H281.176V23.9936ZM281.176 11.2592H297.137V13.2564H281.176V11.2592Z" fill="black"/>
<path d="M72.3936 26.9085C76.0481 13.8774 65.4416 9.9101 54.284 9.9101C42.9735 9.9101 30.9943 13.4298 27.6737 26.2337C26.4357 32.0765 28.0739 37.0182 33.0307 39.4166C43.6895 44.5816 55.1086 43.0108 53.5458 50.348C52.7876 53.9411 47.9927 55.7372 44.5373 55.7372C39.144 55.7372 35.9994 52.9677 37.1478 47.8771H22.1698C19.2746 62.5535 29.5844 66.2391 42.166 66.2391C54.6722 66.2391 67.0536 60.8268 69.4722 49.4479C72.5696 34.846 59.5877 33.9439 51.0116 31.6259C47.2696 30.577 42.7493 29.3039 43.586 25.3346C44.1632 22.6365 47.6337 20.3929 51.076 20.3929C53.6203 20.3929 55.4475 20.9943 56.4823 22.1166C57.5905 23.2399 57.9294 24.8137 57.4176 26.9085H72.3936ZM115.715 65.1017L117.947 54.6159H91.7391L94.1687 43.1566H118.286L120.504 32.6738H96.3922L98.7655 21.5162H124.974L127.205 11.0334H86.022L74.5255 65.1017H115.715ZM124.175 65.1017H137.655L146.455 23.6914H146.603L156.152 65.1017H176.895L188.389 11.0334H174.91L166.373 51.1686L166.197 51.3204L156.637 11.0334H135.672L124.175 65.1017ZM197.412 65.1017L203.178 54.5415H225.119L226.467 65.1017H243.394L233.543 11.0334H215.272L182.434 65.1017H197.412ZM209.22 44.0557L221.336 21.5906H221.564L223.672 44.0557H209.22ZM264.054 65.1017L275.551 11.0334H260.575L249.084 65.1017H264.054Z" fill="black"/>
</g>
<defs>
<clipPath id="clip0_10_966">
<rect width="297.142" height="75.8234" fill="white" transform="translate(0.000488281 0.213745)"/>
</clipPath>
</defs>
</svg>
