<svg width="297" height="76" viewBox="0 0 297 76" fill="none" xmlns="http://www.w3.org/2000/svg">
<g clip-path="url(#clip0_10_951)">
<path d="M296.904 0.113167H0.241455V75.5363H296.904V0.113167Z" fill="#E10613"/>
<path d="M0.239258 62.6634H16.171V64.6474H0.239258V62.6634ZM0.239258 49.9563H16.171V51.9391H0.239258V49.9563ZM0.239258 36.7737H16.171V38.7601H0.239258V36.7737ZM0.239258 23.7686H16.171V25.755H0.239258V23.7686ZM0.239258 11.1008H16.171V13.0871H0.239258V11.1008Z" fill="white"/>
<path d="M280.964 62.6634H296.899V64.6474H280.964V62.6634ZM280.964 49.9563H296.899V51.9391H280.964V49.9563ZM280.964 36.7737H296.899V38.7601H280.964V36.7737ZM280.964 23.7686H296.899V25.755H280.964V23.7686ZM280.964 11.1008H296.899V13.0871H280.964V11.1008Z" fill="white"/>
<path d="M72.5159 26.6674C76.1649 13.7052 65.5744 9.75983 54.435 9.75983C43.1425 9.75983 31.1826 13.2607 27.8674 25.9965C26.6319 31.8079 28.2668 36.7232 33.217 39.11C43.8577 44.247 55.2578 42.6848 53.6983 49.9833C52.9412 53.5569 48.1537 55.3431 44.7045 55.3431C39.3201 55.3431 36.1795 52.5893 37.3264 47.525H22.373C19.4811 62.1244 29.775 65.791 42.3376 65.791C54.8225 65.791 67.1842 60.4074 69.5989 49.0884C72.6905 34.5629 59.7296 33.6668 51.1688 31.3599C47.4313 30.3172 42.9188 29.0506 43.7548 25.1016C44.3313 22.4181 47.7961 20.1863 51.2322 20.1863C53.7736 20.1863 55.5975 20.7845 56.6296 21.901C57.7371 23.0187 58.0756 24.5845 57.5649 26.6674H72.5159ZM115.768 64.659L117.996 54.2289H91.8299L94.2566 42.8302H118.334L120.549 32.4025H96.4763L98.8456 21.304H125.011L127.239 10.8764H86.1227L74.6436 64.659H115.768ZM124.215 64.659H137.672L146.459 23.4667H146.606L156.139 64.659H176.849L188.326 10.8764H174.868L166.345 50.7995L166.169 50.9509L156.624 10.8764H135.693L124.215 64.659ZM197.334 64.659L203.09 54.1551H224.997L226.343 64.659H243.242L233.406 10.8764H215.165L182.379 64.659H197.334ZM209.122 43.725L221.219 21.3779H221.446L223.551 43.725H209.122ZM263.869 64.659L275.347 10.8764H260.396L248.924 64.659H263.869Z" fill="white"/>
</g>
<defs>
<clipPath id="clip0_10_951">
<rect width="296.664" height="75.4232" fill="white" transform="translate(0.239014 0.113274)"/>
</clipPath>
</defs>
</svg>
