<svg width="178" height="46" viewBox="0 0 178 46" fill="none" xmlns="http://www.w3.org/2000/svg">
<g clip-path="url(#clip0_2131_375)">
<path d="M178 3.43323e-05H0.00146484V45.2543H178V3.43323e-05Z" fill="white"/>
<path d="M0 37.5305H9.55911V38.7209H0V37.5305ZM0 29.9062H9.55911V31.0959H0V29.9062ZM0 21.9966H9.55911V23.1884H0V21.9966ZM0 14.1935H9.55911V15.3853H0V14.1935ZM0 6.5927H9.55911V7.78454H0V6.5927Z" fill="#E30613"/>
<path d="M168.436 37.5305H177.997V38.7209H168.436V37.5305ZM168.436 29.9062H177.997V31.0959H168.436V29.9062ZM168.436 21.9966H177.997V23.1884H168.436V21.9966ZM168.436 14.1935H177.997V15.3853H168.436V14.1935ZM168.436 6.5927H177.997V7.78454H168.436V6.5927Z" fill="#E30613"/>
<path d="M43.3662 15.9328C45.5555 8.1554 39.2012 5.78816 32.5175 5.78816C25.742 5.78816 18.566 7.88872 16.5768 15.5302C15.8355 19.0171 16.8165 21.9663 19.7866 23.3984C26.1711 26.4806 33.0112 25.5433 32.0755 29.9224C31.6212 32.0666 28.7487 33.1383 26.6792 33.1383C23.4485 33.1383 21.5641 31.486 22.2523 28.4475H13.2802C11.545 37.2072 17.7214 39.4071 25.259 39.4071C32.75 39.4071 40.1671 36.1769 41.6159 29.3855C43.4709 20.6701 35.6943 20.1324 30.5578 18.7483C28.3153 18.1227 25.6078 17.3627 26.1094 14.9933C26.4553 13.3832 28.5341 12.0441 30.5958 12.0441C32.1207 12.0441 33.215 12.403 33.8343 13.0729C34.4988 13.7435 34.7019 14.683 34.3955 15.9328H43.3662ZM69.3174 38.7279L70.6542 32.4698H54.9546L56.4106 25.6305H70.8573L72.1863 19.3739H57.7425L59.1641 12.7147H74.8637L76.2005 6.45808H51.5303L44.6428 38.7279H69.3174ZM74.3857 38.7279H82.4601L87.7323 14.0124H87.8206L93.5406 38.7279H105.966L112.853 6.45808H104.778L99.6638 30.4122L99.5583 30.503L93.8312 6.45808H81.2725L74.3857 38.7279ZM118.257 38.7279L121.711 32.4255H134.856L135.663 38.7279H145.802L139.901 6.45808H128.956L109.285 38.7279H118.257ZM125.33 26.1674L132.589 12.759H132.725L133.988 26.1674H125.33ZM158.179 38.7279L165.066 6.45808H156.095L149.212 38.7279H158.179Z" fill="#E30613"/>
</g>
<defs>
<clipPath id="clip0_2131_375">
<rect width="178" height="45.2542" fill="white"/>
</clipPath>
</defs>
</svg>
