<svg width="30" height="30" viewBox="0 0 30 30" fill="none" xmlns="http://www.w3.org/2000/svg">
<path d="M4.63749 20.3625C4.51861 20.2487 4.37842 20.1595 4.22499 20.1C3.92066 19.975 3.57931 19.975 3.27499 20.1C3.12155 20.1595 2.98137 20.2487 2.86249 20.3625C2.74868 20.4814 2.65948 20.6216 2.59999 20.775C2.50426 21.0026 2.47811 21.2535 2.52483 21.496C2.57154 21.7385 2.68904 21.9617 2.86249 22.1375C2.98399 22.2479 3.1235 22.3367 3.27499 22.4C3.42461 22.4661 3.5864 22.5003 3.74999 22.5003C3.91357 22.5003 4.07536 22.4661 4.22499 22.4C4.37647 22.3367 4.51598 22.2479 4.63749 22.1375C4.81093 21.9617 4.92843 21.7385 4.97515 21.496C5.02186 21.2535 4.99571 21.0026 4.89999 20.775C4.84049 20.6216 4.75129 20.4814 4.63749 20.3625ZM8.74999 10H26.25C26.5815 10 26.8995 9.8683 27.1339 9.63388C27.3683 9.39946 27.5 9.08152 27.5 8.75C27.5 8.41848 27.3683 8.10054 27.1339 7.86612C26.8995 7.6317 26.5815 7.5 26.25 7.5H8.74999C8.41847 7.5 8.10052 7.6317 7.8661 7.86612C7.63168 8.10054 7.49999 8.41848 7.49999 8.75C7.49999 9.08152 7.63168 9.39946 7.8661 9.63388C8.10052 9.8683 8.41847 10 8.74999 10ZM4.63749 14.1125C4.46171 13.9391 4.23849 13.8216 3.996 13.7748C3.75352 13.7281 3.50262 13.7543 3.27499 13.85C3.1235 13.9133 2.98399 14.0021 2.86249 14.1125C2.74868 14.2314 2.65948 14.3716 2.59999 14.525C2.53385 14.6746 2.49969 14.8364 2.49969 15C2.49969 15.1636 2.53385 15.3254 2.59999 15.475C2.66329 15.6265 2.75207 15.766 2.86249 15.8875C2.98399 15.9979 3.1235 16.0867 3.27499 16.15C3.42461 16.2161 3.5864 16.2503 3.74999 16.2503C3.91357 16.2503 4.07536 16.2161 4.22499 16.15C4.37647 16.0867 4.51598 15.9979 4.63749 15.8875C4.7479 15.766 4.83668 15.6265 4.89999 15.475C4.96612 15.3254 5.00028 15.1636 5.00028 15C5.00028 14.8364 4.96612 14.6746 4.89999 14.525C4.84049 14.3716 4.75129 14.2314 4.63749 14.1125ZM26.25 13.75H8.74999C8.41847 13.75 8.10052 13.8817 7.8661 14.1161C7.63168 14.3505 7.49999 14.6685 7.49999 15C7.49999 15.3315 7.63168 15.6495 7.8661 15.8839C8.10052 16.1183 8.41847 16.25 8.74999 16.25H26.25C26.5815 16.25 26.8995 16.1183 27.1339 15.8839C27.3683 15.6495 27.5 15.3315 27.5 15C27.5 14.6685 27.3683 14.3505 27.1339 14.1161C26.8995 13.8817 26.5815 13.75 26.25 13.75ZM4.63749 7.8625C4.51861 7.7487 4.37842 7.65949 4.22499 7.6C3.99735 7.50428 3.74646 7.47812 3.50397 7.52484C3.26148 7.57156 3.03827 7.68905 2.86249 7.8625C2.75207 7.984 2.66329 8.12352 2.59999 8.275C2.53385 8.42463 2.49969 8.58641 2.49969 8.75C2.49969 8.91359 2.53385 9.07537 2.59999 9.225C2.66329 9.37648 2.75207 9.516 2.86249 9.6375C2.98399 9.74791 3.1235 9.8367 3.27499 9.9C3.50262 9.99572 3.75352 10.0219 3.996 9.97516C4.23849 9.92844 4.46171 9.81095 4.63749 9.6375C4.7479 9.516 4.83668 9.37648 4.89999 9.225C4.96612 9.07537 5.00028 8.91359 5.00028 8.75C5.00028 8.58641 4.96612 8.42463 4.89999 8.275C4.83668 8.12352 4.7479 7.984 4.63749 7.8625ZM26.25 20H8.74999C8.41847 20 8.10052 20.1317 7.8661 20.3661C7.63168 20.6005 7.49999 20.9185 7.49999 21.25C7.49999 21.5815 7.63168 21.8995 7.8661 22.1339C8.10052 22.3683 8.41847 22.5 8.74999 22.5H26.25C26.5815 22.5 26.8995 22.3683 27.1339 22.1339C27.3683 21.8995 27.5 21.5815 27.5 21.25C27.5 20.9185 27.3683 20.6005 27.1339 20.3661C26.8995 20.1317 26.5815 20 26.25 20Z" fill="white"/>
</svg>
