<svg width="30" height="30" viewBox="0 0 30 30" fill="none" xmlns="http://www.w3.org/2000/svg">
<path d="M4.6373 20.3625C4.51842 20.2487 4.37824 20.1595 4.2248 20.1C3.92048 19.975 3.57913 19.975 3.2748 20.1C3.12136 20.1595 2.98118 20.2487 2.8623 20.3625C2.7485 20.4814 2.6593 20.6216 2.5998 20.775C2.50408 21.0026 2.47792 21.2535 2.52464 21.496C2.57136 21.7385 2.68886 21.9617 2.8623 22.1375C2.9838 22.2479 3.12332 22.3367 3.2748 22.4C3.42443 22.4661 3.58621 22.5003 3.7498 22.5003C3.91339 22.5003 4.07518 22.4661 4.2248 22.4C4.37628 22.3367 4.5158 22.2479 4.6373 22.1375C4.81075 21.9617 4.92824 21.7385 4.97496 21.496C5.02168 21.2535 4.99553 21.0026 4.8998 20.775C4.84031 20.6216 4.7511 20.4814 4.6373 20.3625V20.3625ZM8.7498 10H26.2498C26.5813 10 26.8993 9.8683 27.1337 9.63388C27.3681 9.39946 27.4998 9.08152 27.4998 8.75C27.4998 8.41848 27.3681 8.10054 27.1337 7.86612C26.8993 7.6317 26.5813 7.5 26.2498 7.5H8.7498C8.41828 7.5 8.10034 7.6317 7.86592 7.86612C7.6315 8.10054 7.4998 8.41848 7.4998 8.75C7.4998 9.08152 7.6315 9.39946 7.86592 9.63388C8.10034 9.8683 8.41828 10 8.7498 10ZM4.6373 14.1125C4.46152 13.9391 4.23831 13.8216 3.99582 13.7748C3.75333 13.7281 3.50244 13.7543 3.2748 13.85C3.12332 13.9133 2.9838 14.0021 2.8623 14.1125C2.7485 14.2314 2.6593 14.3716 2.5998 14.525C2.53367 14.6746 2.49951 14.8364 2.49951 15C2.49951 15.1636 2.53367 15.3254 2.5998 15.475C2.6631 15.6265 2.75189 15.766 2.8623 15.8875C2.9838 15.9979 3.12332 16.0867 3.2748 16.15C3.42443 16.2161 3.58621 16.2503 3.7498 16.2503C3.91339 16.2503 4.07518 16.2161 4.2248 16.15C4.37628 16.0867 4.5158 15.9979 4.6373 15.8875C4.74772 15.766 4.8365 15.6265 4.8998 15.475C4.96593 15.3254 5.00009 15.1636 5.00009 15C5.00009 14.8364 4.96593 14.6746 4.8998 14.525C4.84031 14.3716 4.7511 14.2314 4.6373 14.1125V14.1125ZM26.2498 13.75H8.7498C8.41828 13.75 8.10034 13.8817 7.86592 14.1161C7.6315 14.3505 7.4998 14.6685 7.4998 15C7.4998 15.3315 7.6315 15.6495 7.86592 15.8839C8.10034 16.1183 8.41828 16.25 8.7498 16.25H26.2498C26.5813 16.25 26.8993 16.1183 27.1337 15.8839C27.3681 15.6495 27.4998 15.3315 27.4998 15C27.4998 14.6685 27.3681 14.3505 27.1337 14.1161C26.8993 13.8817 26.5813 13.75 26.2498 13.75ZM4.6373 7.8625C4.51842 7.7487 4.37824 7.65949 4.2248 7.6C3.99716 7.50428 3.74627 7.47812 3.50379 7.52484C3.2613 7.57156 3.03808 7.68905 2.8623 7.8625C2.75189 7.984 2.6631 8.12352 2.5998 8.275C2.53367 8.42463 2.49951 8.58641 2.49951 8.75C2.49951 8.91359 2.53367 9.07537 2.5998 9.225C2.6631 9.37648 2.75189 9.516 2.8623 9.6375C2.9838 9.74791 3.12332 9.8367 3.2748 9.9C3.50244 9.99572 3.75333 10.0219 3.99582 9.97516C4.23831 9.92844 4.46152 9.81095 4.6373 9.6375C4.74772 9.516 4.8365 9.37648 4.8998 9.225C4.96593 9.07537 5.00009 8.91359 5.00009 8.75C5.00009 8.58641 4.96593 8.42463 4.8998 8.275C4.8365 8.12352 4.74772 7.984 4.6373 7.8625V7.8625ZM26.2498 20H8.7498C8.41828 20 8.10034 20.1317 7.86592 20.3661C7.6315 20.6005 7.4998 20.9185 7.4998 21.25C7.4998 21.5815 7.6315 21.8995 7.86592 22.1339C8.10034 22.3683 8.41828 22.5 8.7498 22.5H26.2498C26.5813 22.5 26.8993 22.3683 27.1337 22.1339C27.3681 21.8995 27.4998 21.5815 27.4998 21.25C27.4998 20.9185 27.3681 20.6005 27.1337 20.3661C26.8993 20.1317 26.5813 20 26.2498 20Z" fill="white"/>
</svg>
