<svg width="30" height="30" viewBox="0 0 30 30" fill="none" xmlns="http://www.w3.org/2000/svg">
<path d="M15.8875 7.8625C15.7686 7.7487 15.6284 7.65949 15.475 7.6C15.1707 7.47498 14.8293 7.47498 14.525 7.6C14.3716 7.65949 14.2314 7.7487 14.1125 7.8625L9.1125 12.8625C8.99595 12.979 8.9035 13.1174 8.84043 13.2697C8.77735 13.422 8.74489 13.5852 8.74489 13.75C8.74489 13.9148 8.77735 14.078 8.84043 14.2303C8.9035 14.3826 8.99595 14.521 9.1125 14.6375C9.22905 14.754 9.36741 14.8465 9.51969 14.9096C9.67197 14.9727 9.83518 15.0051 10 15.0051C10.1648 15.0051 10.328 14.9727 10.4803 14.9096C10.6326 14.8465 10.771 14.754 10.8875 14.6375L13.75 11.7625V26.25C13.75 26.5815 13.8817 26.8995 14.1161 27.1339C14.3505 27.3683 14.6685 27.5 15 27.5C15.3315 27.5 15.6495 27.3683 15.8839 27.1339C16.1183 26.8995 16.25 26.5815 16.25 26.25V11.7625L19.1125 14.6375C19.2287 14.7547 19.367 14.8477 19.5193 14.9111C19.6716 14.9746 19.835 15.0072 20 15.0072C20.165 15.0072 20.3284 14.9746 20.4807 14.9111C20.633 14.8477 20.7713 14.7547 20.8875 14.6375C21.0047 14.5213 21.0977 14.383 21.1611 14.2307C21.2246 14.0784 21.2572 13.915 21.2572 13.75C21.2572 13.585 21.2246 13.4216 21.1611 13.2693C21.0977 13.117 21.0047 12.9787 20.8875 12.8625L15.8875 7.8625ZM23.75 2.5H6.25C5.91848 2.5 5.60054 2.6317 5.36612 2.86612C5.1317 3.10054 5 3.41848 5 3.75C5 4.08152 5.1317 4.39946 5.36612 4.63388C5.60054 4.8683 5.91848 5 6.25 5H23.75C24.0815 5 24.3995 4.8683 24.6339 4.63388C24.8683 4.39946 25 4.08152 25 3.75C25 3.41848 24.8683 3.10054 24.6339 2.86612C24.3995 2.6317 24.0815 2.5 23.75 2.5Z" fill="white"/>
</svg>
