<svg width="178" height="46" viewBox="0 0 178 46" fill="none" xmlns="http://www.w3.org/2000/svg">
<g clip-path="url(#clip0_2186_597)">
<path d="M178 -2.67029e-05H0.00146484V45.2542H178V-2.67029e-05Z" fill="white"/>
<path d="M0 37.5305H9.55911V38.7209H0V37.5305ZM0 29.9062H9.55911V31.0959H0V29.9062ZM0 21.9966H9.55911V23.1884H0V21.9966ZM0 14.1935H9.55911V15.3853H0V14.1935ZM0 6.5927H9.55911V7.78454H0V6.5927Z" fill="#E30613"/>
<path d="M168.436 37.5305H177.997V38.7209H168.436V37.5305ZM168.436 29.9062H177.997V31.0959H168.436V29.9062ZM168.436 21.9966H177.997V23.1884H168.436V21.9966ZM168.436 14.1935H177.997V15.3853H168.436V14.1935ZM168.436 6.5927H177.997V7.78454H168.436V6.5927Z" fill="#E30613"/>
<path d="M43.366 15.9328C45.5554 8.1554 39.2011 5.78816 32.5174 5.78816C25.7418 5.78816 18.5659 7.88872 16.5767 15.5302C15.8354 19.0171 16.8164 21.9663 19.7865 23.3984C26.171 26.4806 33.0111 25.5433 32.0754 29.9224C31.6211 32.0666 28.7486 33.1383 26.679 33.1383C23.4484 33.1383 21.564 31.486 22.2522 28.4475H13.2801C11.5449 37.2072 17.7213 39.4071 25.2589 39.4071C32.7499 39.4071 40.167 36.1769 41.6158 29.3855C43.4708 20.6701 35.6942 20.1324 30.5576 18.7483C28.3152 18.1227 25.6077 17.3627 26.1093 14.9933C26.4551 13.3832 28.534 12.0441 30.5957 12.0441C32.1206 12.0441 33.2149 12.403 33.8342 13.0729C34.4987 13.7435 34.7018 14.683 34.3954 15.9328H43.366ZM69.3172 38.7279L70.6541 32.4698H54.9545L56.4105 25.6305H70.8572L72.1862 19.3739H57.7424L59.1639 12.7147H74.8635L76.2004 6.45808H51.5301L44.6426 38.7279H69.3172ZM74.3856 38.7279H82.46L87.7322 14.0124H87.8205L93.5404 38.7279H105.966L112.852 6.45808H104.778L99.6637 30.4122L99.5582 30.503L93.8311 6.45808H81.2724L74.3856 38.7279ZM118.257 38.7279L121.711 32.4255H134.855L135.663 38.7279H145.802L139.901 6.45808H128.956L109.285 38.7279H118.257ZM125.33 26.1674L132.589 12.759H132.725L133.988 26.1674H125.33ZM158.179 38.7279L165.066 6.45808H156.095L149.212 38.7279H158.179Z" fill="#E30613"/>
</g>
<defs>
<clipPath id="clip0_2186_597">
<rect width="178" height="45.2542" fill="white"/>
</clipPath>
</defs>
</svg>
