<svg width="30" height="30" viewBox="0 0 30 30" fill="none" xmlns="http://www.w3.org/2000/svg">
<path d="M4.63779 20.3625C4.51891 20.2487 4.37873 20.1595 4.22529 20.1C3.92096 19.975 3.57962 19.975 3.27529 20.1C3.12185 20.1595 2.98167 20.2487 2.86279 20.3625C2.74899 20.4814 2.65978 20.6216 2.60029 20.775C2.50457 21.0026 2.47841 21.2535 2.52513 21.496C2.57185 21.7385 2.68934 21.9617 2.86279 22.1375C2.98429 22.2479 3.12381 22.3367 3.27529 22.4C3.42492 22.4661 3.5867 22.5003 3.75029 22.5003C3.91388 22.5003 4.07567 22.4661 4.22529 22.4C4.37677 22.3367 4.51629 22.2479 4.63779 22.1375C4.81124 21.9617 4.92873 21.7385 4.97545 21.496C5.02217 21.2535 4.99602 21.0026 4.90029 20.775C4.8408 20.6216 4.75159 20.4814 4.63779 20.3625ZM8.75029 10H26.2503C26.5818 10 26.8998 9.8683 27.1342 9.63388C27.3686 9.39946 27.5003 9.08152 27.5003 8.75C27.5003 8.41848 27.3686 8.10054 27.1342 7.86612C26.8998 7.6317 26.5818 7.5 26.2503 7.5H8.75029C8.41877 7.5 8.10083 7.6317 7.86641 7.86612C7.63199 8.10054 7.50029 8.41848 7.50029 8.75C7.50029 9.08152 7.63199 9.39946 7.86641 9.63388C8.10083 9.8683 8.41877 10 8.75029 10ZM4.63779 14.1125C4.46201 13.9391 4.23879 13.8216 3.99631 13.7748C3.75382 13.7281 3.50293 13.7543 3.27529 13.85C3.12381 13.9133 2.98429 14.0021 2.86279 14.1125C2.74899 14.2314 2.65978 14.3716 2.60029 14.525C2.53416 14.6746 2.5 14.8364 2.5 15C2.5 15.1636 2.53416 15.3254 2.60029 15.475C2.66359 15.6265 2.75238 15.766 2.86279 15.8875C2.98429 15.9979 3.12381 16.0867 3.27529 16.15C3.42492 16.2161 3.5867 16.2503 3.75029 16.2503C3.91388 16.2503 4.07567 16.2161 4.22529 16.15C4.37677 16.0867 4.51629 15.9979 4.63779 15.8875C4.7482 15.766 4.83699 15.6265 4.90029 15.475C4.96642 15.3254 5.00058 15.1636 5.00058 15C5.00058 14.8364 4.96642 14.6746 4.90029 14.525C4.8408 14.3716 4.75159 14.2314 4.63779 14.1125ZM26.2503 13.75H8.75029C8.41877 13.75 8.10083 13.8817 7.86641 14.1161C7.63199 14.3505 7.50029 14.6685 7.50029 15C7.50029 15.3315 7.63199 15.6495 7.86641 15.8839C8.10083 16.1183 8.41877 16.25 8.75029 16.25H26.2503C26.5818 16.25 26.8998 16.1183 27.1342 15.8839C27.3686 15.6495 27.5003 15.3315 27.5003 15C27.5003 14.6685 27.3686 14.3505 27.1342 14.1161C26.8998 13.8817 26.5818 13.75 26.2503 13.75ZM4.63779 7.8625C4.51891 7.7487 4.37873 7.65949 4.22529 7.6C3.99765 7.50428 3.74676 7.47812 3.50427 7.52484C3.26179 7.57156 3.03857 7.68905 2.86279 7.8625C2.75238 7.984 2.66359 8.12352 2.60029 8.275C2.53416 8.42463 2.5 8.58641 2.5 8.75C2.5 8.91359 2.53416 9.07537 2.60029 9.225C2.66359 9.37648 2.75238 9.516 2.86279 9.6375C2.98429 9.74791 3.12381 9.8367 3.27529 9.9C3.50293 9.99572 3.75382 10.0219 3.99631 9.97516C4.23879 9.92844 4.46201 9.81095 4.63779 9.6375C4.7482 9.516 4.83699 9.37648 4.90029 9.225C4.96642 9.07537 5.00058 8.91359 5.00058 8.75C5.00058 8.58641 4.96642 8.42463 4.90029 8.275C4.83699 8.12352 4.7482 7.984 4.63779 7.8625ZM26.2503 20H8.75029C8.41877 20 8.10083 20.1317 7.86641 20.3661C7.63199 20.6005 7.50029 20.9185 7.50029 21.25C7.50029 21.5815 7.63199 21.8995 7.86641 22.1339C8.10083 22.3683 8.41877 22.5 8.75029 22.5H26.2503C26.5818 22.5 26.8998 22.3683 27.1342 22.1339C27.3686 21.8995 27.5003 21.5815 27.5003 21.25C27.5003 20.9185 27.3686 20.6005 27.1342 20.3661C26.8998 20.1317 26.5818 20 26.2503 20Z" fill="white"/>
</svg>
