<svg width="25" height="25" viewBox="0 0 25 25" fill="none" xmlns="http://www.w3.org/2000/svg">
<g clip-path="url(#clip0_382_208)">
<path d="M5.5 5.75391C5.5 4.82565 5.86875 3.93541 6.52513 3.27903C7.1815 2.62266 8.07174 2.25391 9 2.25391H12.5V9.25391H9C8.07174 9.25391 7.1815 8.88516 6.52513 8.22878C5.86875 7.5724 5.5 6.68216 5.5 5.75391Z" stroke="white" stroke-width="2" stroke-linecap="round" stroke-linejoin="round"/>
<path d="M12.5 2.25391H16C16.4596 2.25391 16.9148 2.34444 17.3394 2.52033C17.764 2.69622 18.1499 2.95403 18.4749 3.27903C18.7999 3.60404 19.0577 3.98987 19.2336 4.41451C19.4095 4.83915 19.5 5.29428 19.5 5.75391C19.5 6.21353 19.4095 6.66866 19.2336 7.0933C19.0577 7.51794 18.7999 7.90377 18.4749 8.22878C18.1499 8.55378 17.764 8.81159 17.3394 8.98748C16.9148 9.16338 16.4596 9.25391 16 9.25391H12.5V2.25391Z" stroke="white" stroke-width="2" stroke-linecap="round" stroke-linejoin="round"/>
<path d="M12.5 12.7539C12.5 12.2943 12.5905 11.8392 12.7664 11.4145C12.9423 10.9899 13.2001 10.604 13.5251 10.279C13.8501 9.95403 14.236 9.69622 14.6606 9.52033C15.0852 9.34444 15.5404 9.25391 16 9.25391C16.4596 9.25391 16.9148 9.34444 17.3394 9.52033C17.764 9.69622 18.1499 9.95403 18.4749 10.279C18.7999 10.604 19.0577 10.9899 19.2336 11.4145C19.4095 11.8392 19.5 12.2943 19.5 12.7539C19.5 13.2135 19.4095 13.6687 19.2336 14.0933C19.0577 14.5179 18.7999 14.9038 18.4749 15.2288C18.1499 15.5538 17.764 15.8116 17.3394 15.9875C16.9148 16.1634 16.4596 16.2539 16 16.2539C15.5404 16.2539 15.0852 16.1634 14.6606 15.9875C14.236 15.8116 13.8501 15.5538 13.5251 15.2288C13.2001 14.9038 12.9423 14.5179 12.7664 14.0933C12.5905 13.6687 12.5 13.2135 12.5 12.7539V12.7539Z" stroke="white" stroke-width="2" stroke-linecap="round" stroke-linejoin="round"/>
<path d="M5.5 19.7539C5.5 18.8256 5.86875 17.9354 6.52513 17.279C7.1815 16.6227 8.07174 16.2539 9 16.2539H12.5V19.7539C12.5 20.6822 12.1313 21.5724 11.4749 22.2288C10.8185 22.8852 9.92826 23.2539 9 23.2539C8.07174 23.2539 7.1815 22.8852 6.52513 22.2288C5.86875 21.5724 5.5 20.6822 5.5 19.7539Z" stroke="white" stroke-width="2" stroke-linecap="round" stroke-linejoin="round"/>
<path d="M5.5 12.7539C5.5 11.8256 5.86875 10.9354 6.52513 10.279C7.1815 9.62266 8.07174 9.25391 9 9.25391H12.5V16.2539H9C8.07174 16.2539 7.1815 15.8852 6.52513 15.2288C5.86875 14.5724 5.5 13.6822 5.5 12.7539Z" stroke="white" stroke-width="2" stroke-linecap="round" stroke-linejoin="round"/>
</g>
<defs>
<clipPath id="clip0_382_208">
<rect width="24" height="24" fill="white" transform="translate(0.5 0.253906)"/>
</clipPath>
</defs>
</svg>
