<svg width="30" height="31" viewBox="0 0 30 31" fill="none" xmlns="http://www.w3.org/2000/svg">
<path d="M4.63779 20.9895C4.51891 20.8757 4.37873 20.7864 4.22529 20.727C3.92096 20.6019 3.57962 20.6019 3.27529 20.727C3.12185 20.7864 2.98167 20.8757 2.86279 20.9895C2.74899 21.1083 2.65978 21.2485 2.60029 21.402C2.50457 21.6296 2.47841 21.8805 2.52513 22.123C2.57185 22.3655 2.68934 22.5887 2.86279 22.7645C2.98429 22.8749 3.12381 22.9636 3.27529 23.027C3.42492 23.0931 3.5867 23.1272 3.75029 23.1272C3.91388 23.1272 4.07567 23.0931 4.22529 23.027C4.37677 22.9636 4.51629 22.8749 4.63779 22.7645C4.81124 22.5887 4.92873 22.3655 4.97545 22.123C5.02217 21.8805 4.99602 21.6296 4.90029 21.402C4.8408 21.2485 4.75159 21.1083 4.63779 20.9895ZM8.75029 10.627H26.2503C26.5818 10.627 26.8998 10.4953 27.1342 10.2608C27.3686 10.0264 27.5003 9.70847 27.5003 9.37695C27.5003 9.04543 27.3686 8.72749 27.1342 8.49307C26.8998 8.25865 26.5818 8.12695 26.2503 8.12695H8.75029C8.41877 8.12695 8.10083 8.25865 7.86641 8.49307C7.63199 8.72749 7.50029 9.04543 7.50029 9.37695C7.50029 9.70847 7.63199 10.0264 7.86641 10.2608C8.10083 10.4953 8.41877 10.627 8.75029 10.627ZM4.63779 14.7395C4.46201 14.566 4.23879 14.4485 3.99631 14.4018C3.75382 14.3551 3.50293 14.3812 3.27529 14.477C3.12381 14.5403 2.98429 14.629 2.86279 14.7395C2.74899 14.8583 2.65978 14.9985 2.60029 15.152C2.53416 15.3016 2.5 15.4634 2.5 15.627C2.5 15.7905 2.53416 15.9523 2.60029 16.102C2.66359 16.2534 2.75238 16.393 2.86279 16.5145C2.98429 16.6249 3.12381 16.7136 3.27529 16.777C3.42492 16.8431 3.5867 16.8772 3.75029 16.8772C3.91388 16.8772 4.07567 16.8431 4.22529 16.777C4.37677 16.7136 4.51629 16.6249 4.63779 16.5145C4.7482 16.393 4.83699 16.2534 4.90029 16.102C4.96642 15.9523 5.00058 15.7905 5.00058 15.627C5.00058 15.4634 4.96642 15.3016 4.90029 15.152C4.8408 14.9985 4.75159 14.8583 4.63779 14.7395ZM26.2503 14.377H8.75029C8.41877 14.377 8.10083 14.5086 7.86641 14.7431C7.63199 14.9775 7.50029 15.2954 7.50029 15.627C7.50029 15.9585 7.63199 16.2764 7.86641 16.5108C8.10083 16.7453 8.41877 16.877 8.75029 16.877H26.2503C26.5818 16.877 26.8998 16.7453 27.1342 16.5108C27.3686 16.2764 27.5003 15.9585 27.5003 15.627C27.5003 15.2954 27.3686 14.9775 27.1342 14.7431C26.8998 14.5086 26.5818 14.377 26.2503 14.377ZM4.63779 8.48945C4.51891 8.37565 4.37873 8.28645 4.22529 8.22695C3.99765 8.13123 3.74676 8.10508 3.50427 8.15179C3.26179 8.19851 3.03857 8.31601 2.86279 8.48945C2.75238 8.61095 2.66359 8.75047 2.60029 8.90195C2.53416 9.05158 2.5 9.21336 2.5 9.37695C2.5 9.54054 2.53416 9.70233 2.60029 9.85195C2.66359 10.0034 2.75238 10.143 2.86279 10.2645C2.98429 10.3749 3.12381 10.4637 3.27529 10.527C3.50293 10.6227 3.75382 10.6488 3.99631 10.6021C4.23879 10.5554 4.46201 10.4379 4.63779 10.2645C4.7482 10.143 4.83699 10.0034 4.90029 9.85195C4.96642 9.70233 5.00058 9.54054 5.00058 9.37695C5.00058 9.21336 4.96642 9.05158 4.90029 8.90195C4.83699 8.75047 4.7482 8.61095 4.63779 8.48945ZM26.2503 20.627H8.75029C8.41877 20.627 8.10083 20.7586 7.86641 20.9931C7.63199 21.2275 7.50029 21.5454 7.50029 21.877C7.50029 22.2085 7.63199 22.5264 7.86641 22.7608C8.10083 22.9953 8.41877 23.127 8.75029 23.127H26.2503C26.5818 23.127 26.8998 22.9953 27.1342 22.7608C27.3686 22.5264 27.5003 22.2085 27.5003 21.877C27.5003 21.5454 27.3686 21.2275 27.1342 20.9931C26.8998 20.7586 26.5818 20.627 26.2503 20.627Z" fill="white"/>
</svg>
