<svg width="25" height="25" viewBox="0 0 25 25" fill="none" xmlns="http://www.w3.org/2000/svg">
<g clip-path="url(#clip0_382_204)">
<path d="M9.5 19.2543C4.5 20.7543 4.5 16.7543 2.5 16.2543M16.5 22.2543V18.3843C16.5375 17.9075 16.4731 17.4281 16.311 16.9781C16.1489 16.5281 15.8929 16.1178 15.56 15.7743C18.7 15.4243 22 14.2343 22 8.77433C21.9997 7.37816 21.4627 6.03553 20.5 5.02433C20.9559 3.80284 20.9236 2.45268 20.41 1.25433C20.41 1.25433 19.23 0.904332 16.5 2.73433C14.208 2.11315 11.792 2.11315 9.5 2.73433C6.77 0.904332 5.59 1.25433 5.59 1.25433C5.07638 2.45268 5.04414 3.80284 5.5 5.02433C4.53013 6.04303 3.99252 7.3978 4 8.80433C4 14.2243 7.3 15.4143 10.44 15.8043C10.111 16.1443 9.85726 16.5497 9.69531 16.9943C9.53335 17.4388 9.46681 17.9124 9.5 18.3843V22.2543" stroke="white" stroke-width="2" stroke-linecap="round" stroke-linejoin="round"/>
</g>
<defs>
<clipPath id="clip0_382_204">
<rect width="24" height="24" fill="white" transform="translate(0.5 0.253906)"/>
</clipPath>
</defs>
</svg>
