<?xml version="1.0" encoding="UTF-8"?>
<svg version="1.1" xmlns="http://www.w3.org/2000/svg" width="256" height="256">
<path d="M0 0 C5.37771376 4.33098019 9.99135134 9.37230086 14.51171875 14.5703125 C18.03948094 18.62119574 21.68575425 22.54562358 25.375 26.44921875 C26.69830806 27.85510045 28.02121972 29.26135536 29.34375 30.66796875 C29.9934375 31.35890625 30.643125 32.04984375 31.3125 32.76171875 C35.4823479 37.20955651 39.60733409 41.69888872 43.73583984 46.18505859 C46.216964 48.87982815 48.70245791 51.57056268 51.1875 54.26171875 C54.16545955 57.48699627 57.14286883 60.71277041 60.1171875 63.94140625 C64.88097563 69.11055577 69.65527689 74.26924085 74.45556641 79.40454102 C76.80979742 81.92308774 79.16133772 84.44413579 81.51220703 86.96582031 C82.60075909 88.13273797 83.69022654 89.29880263 84.78076172 90.46386719 C101.29151758 108.11966428 101.29151758 108.11966428 101.33467102 116.31387329 C101.34540398 117.7141275 101.34540398 117.7141275 101.35635376 119.14266968 C101.35904266 120.16502716 101.36173157 121.18738464 101.36450195 122.24072266 C101.37107315 123.319104 101.37764435 124.39748535 101.38441467 125.50854492 C101.40415952 129.08512439 101.41581408 132.6616618 101.42578125 136.23828125 C101.42985678 137.45994366 101.4339323 138.68160606 101.43813133 139.94028854 C101.45899892 146.4085956 101.47329667 152.8768814 101.48266602 159.34521484 C101.49271363 166.01997634 101.52810871 172.69435717 101.56783772 179.36901283 C101.59401202 184.50609956 101.6023587 189.64310683 101.60594749 194.78025436 C101.61081271 197.24015938 101.62242474 199.70006086 101.64098549 202.15990067 C101.66538906 205.60898363 101.66440893 209.05720439 101.6574707 212.50634766 C101.67668579 214.0216658 101.67668579 214.0216658 101.69628906 215.56759644 C101.62964889 224.68884276 98.54010657 233.05618959 92.1875 239.76171875 C83.58323587 246.6769977 76.27984062 248.06014825 65.4453125 247.95703125 C63.76004959 247.95278641 63.76004959 247.95278641 62.04074097 247.94845581 C58.46455073 247.93729178 54.8886141 247.91219376 51.3125 247.88671875 C48.88281613 247.87668408 46.45312831 247.86755908 44.0234375 247.859375 C38.07803898 247.83736479 32.13278761 247.80392464 26.1875 247.76171875 C26.18163376 246.92614944 26.17576752 246.09058014 26.16972351 245.22969055 C26.11148506 237.30155692 26.03923406 229.37369574 25.95178509 221.44582844 C25.9073212 217.37137699 25.86801455 213.29702003 25.84106445 209.22241211 C25.81478922 205.27996874 25.7742224 201.33789384 25.72431374 197.39568138 C25.70780681 195.90207744 25.69619302 194.40841001 25.68988609 192.91472816 C25.60607856 174.86767873 22.20288075 159.19140566 9.41015625 145.7578125 C-1.89097452 135.60864234 -15.16455008 131.39469944 -30.1171875 131.55078125 C-44.74833845 132.38596323 -56.94425467 139.08515298 -66.8125 149.76171875 C-75.11175785 160.35042704 -78.84655998 172.41839742 -79.01782227 185.77685547 C-79.02772186 186.450728 -79.03762146 187.12460052 -79.04782104 187.81889343 C-79.07918184 190.02636307 -79.10409184 192.23385416 -79.12890625 194.44140625 C-79.14949779 195.97983328 -79.17049482 197.51825493 -79.19187927 199.05667114 C-79.24687285 203.09089787 -79.29638155 207.12517372 -79.34472656 211.15948486 C-79.39510824 215.28214856 -79.45070701 219.4047416 -79.50585938 223.52734375 C-79.61316281 231.60540886 -79.71466863 239.68353339 -79.8125 247.76171875 C-86.91076323 247.86358532 -94.00883619 247.93337957 -101.10766602 247.98144531 C-103.51984705 248.00149427 -105.93197989 248.02874067 -108.34399414 248.06347656 C-111.82189873 248.11228926 -115.29915772 248.13475558 -118.77734375 248.15234375 C-119.84645493 248.17298889 -120.9155661 248.19363403 -122.01707458 248.21490479 C-131.4383621 248.21769434 -139.86833833 245.34039823 -146.8125 238.76171875 C-153.46371155 230.48601775 -155.11234795 223.34513243 -155.10302734 212.91040039 C-155.10974457 211.82836838 -155.11646179 210.74633636 -155.12338257 209.6315155 C-155.14235052 206.06158839 -155.14628595 202.49184934 -155.1484375 198.921875 C-155.15486537 196.43615136 -155.16159372 193.95042847 -155.16860962 191.46470642 C-155.18057875 186.25713344 -155.18429072 181.04962678 -155.18310547 175.84204102 C-155.18177145 169.17274621 -155.21022457 162.50393993 -155.24464989 155.83472538 C-155.2668958 150.70200144 -155.27094374 145.5693803 -155.26988602 140.43661308 C-155.27224466 137.9778541 -155.28108289 135.5190924 -155.29655075 133.06038094 C-155.3161666 129.62076179 -155.3103895 126.18206594 -155.29833984 122.74243164 C-155.30957886 121.72974213 -155.32081787 120.71705261 -155.33239746 119.67367554 C-155.25739255 111.23940456 -152.71199293 106.46311972 -146.9375 100.26171875 C-145.761875 98.98941406 -145.761875 98.98941406 -144.5625 97.69140625 C-143.64614561 96.71455072 -142.72945352 95.73801191 -141.8125 94.76171875 C-140.7079319 93.57719712 -139.60378927 92.39227865 -138.5 91.20703125 C-136.10186296 88.63398848 -133.70021951 86.06427227 -131.296875 83.49609375 C-127.34136314 79.2639122 -123.42843738 74.99393723 -119.51953125 70.71875 C-115.14041788 65.93034381 -110.73216677 61.168748 -106.32861328 56.40283203 C-103.82235896 53.68994289 -101.31749554 50.97577016 -98.8125 48.26171875 C-97.81250676 47.17837918 -96.81250676 46.09504584 -95.8125 45.01171875 C-95.3175 44.47546875 -94.8225 43.93921875 -94.3125 43.38671875 C-92.8125 41.76171875 -91.3125 40.13671875 -89.8125 38.51171875 C-89.31766113 37.97562988 -88.82282227 37.43954102 -88.31298828 36.88720703 C-87.31141474 35.80219619 -86.309787 34.71723537 -85.30810547 33.63232422 C-82.34131491 30.41886319 -79.37627948 27.2038004 -76.41357422 23.98657227 C-75.4298982 22.92040803 -74.44454547 21.85578834 -73.45751953 20.79272461 C-70.70620482 17.82843082 -67.98621024 14.8410385 -65.296875 11.8203125 C-53.42513293 -1.40052772 -53.42513293 -1.40052772 -44.8125 -5.23828125 C-44.15894531 -5.57085937 -43.50539063 -5.9034375 -42.83203125 -6.24609375 C-28.9181104 -12.22073675 -11.8711928 -8.41582775 0 0 Z " fill="#FFFFFF" transform="translate(154.8125,8.23828125)"/>
<path d="M0 0 C9.89331425 10.11773726 10.4307572 20.15538659 10.29296875 33.53125 C10.28736562 35.13406983 10.28309891 36.73689485 10.28010559 38.33972168 C10.26871315 42.53522204 10.23929505 46.73040523 10.20599365 50.92578125 C10.16974129 55.9719182 10.1561049 61.01816187 10.13863373 66.06439209 C10.10965361 73.70981455 10.05212812 81.35454264 10 89 C-11.12 89 -32.24 89 -54 89 C-54.16043524 71.43234151 -54.16043524 71.43234151 -54.1953125 63.89453125 C-54.21914495 58.76822165 -54.24721713 53.64220015 -54.30175781 48.51611328 C-54.34549267 44.37933589 -54.36919487 40.24286782 -54.37950897 36.10587692 C-54.38685112 34.53433748 -54.40118766 32.96281333 -54.42292023 31.39140701 C-54.57119466 20.21709506 -53.87998146 10.14625855 -45.81640625 1.59765625 C-32.62155273 -10.00813964 -13.89990922 -11.45704292 0 0 Z " fill="#FFFFFF" transform="translate(150,167)"/>
</svg>
