<svg width="25" height="25" viewBox="0 0 25 25" fill="none" xmlns="http://www.w3.org/2000/svg">
<path d="M17.84 5.71391C17.6027 5.71391 17.3707 5.78429 17.1733 5.91614C16.976 6.048 16.8222 6.23541 16.7313 6.45469C16.6405 6.67396 16.6168 6.91524 16.6631 7.14801C16.7094 7.38079 16.8236 7.59461 16.9915 7.76243C17.1593 7.93026 17.3731 8.04455 17.6059 8.09085C17.8387 8.13715 18.0799 8.11339 18.2992 8.02256C18.5185 7.93174 18.7059 7.77793 18.8378 7.58059C18.9696 7.38325 19.04 7.15124 19.04 6.91391C19.04 6.59565 18.9136 6.29042 18.6885 6.06538C18.4635 5.84033 18.1583 5.71391 17.84 5.71391ZM22.44 8.13391C22.4206 7.3042 22.2652 6.48331 21.98 5.70391C21.7257 5.03704 21.33 4.43318 20.82 3.93391C20.3248 3.42133 19.7196 3.02808 19.05 2.78391C18.2727 2.49007 17.4508 2.33112 16.62 2.31391C15.56 2.25391 15.22 2.25391 12.5 2.25391C9.78 2.25391 9.44 2.25391 8.38 2.31391C7.54915 2.33112 6.72734 2.49007 5.95 2.78391C5.28168 3.03055 4.67693 3.42347 4.18 3.93391C3.66743 4.42908 3.27418 5.03435 3.03 5.70391C2.73616 6.48125 2.57721 7.30306 2.56 8.13391C2.5 9.19391 2.5 9.53391 2.5 12.2539C2.5 14.9739 2.5 15.3139 2.56 16.3739C2.57721 17.2048 2.73616 18.0266 3.03 18.8039C3.27418 19.4735 3.66743 20.0787 4.18 20.5739C4.67693 21.0843 5.28168 21.4773 5.95 21.7239C6.72734 22.0177 7.54915 22.1767 8.38 22.1939C9.44 22.2539 9.78 22.2539 12.5 22.2539C15.22 22.2539 15.56 22.2539 16.62 22.1939C17.4508 22.1767 18.2727 22.0177 19.05 21.7239C19.7196 21.4797 20.3248 21.0865 20.82 20.5739C21.3322 20.0765 21.7283 19.4721 21.98 18.8039C22.2652 18.0245 22.4206 17.2036 22.44 16.3739C22.44 15.3139 22.5 14.9739 22.5 12.2539C22.5 9.53391 22.5 9.19391 22.44 8.13391ZM20.64 16.2539C20.6327 16.8887 20.5178 17.5176 20.3 18.1139C20.1403 18.5491 19.8839 18.9423 19.55 19.2639C19.2256 19.5944 18.8332 19.8503 18.4 20.0139C17.8037 20.2317 17.1748 20.3466 16.54 20.3539C15.54 20.4039 15.17 20.4139 12.54 20.4139C9.91 20.4139 9.54 20.4139 8.54 20.3539C7.88089 20.3662 7.22459 20.2648 6.6 20.0539C6.18578 19.882 5.81136 19.6267 5.5 19.3039C5.16809 18.9827 4.91484 18.5891 4.76 18.1539C4.51586 17.5491 4.38044 16.9058 4.36 16.2539C4.36 15.2539 4.3 14.8839 4.3 12.2539C4.3 9.62391 4.3 9.25391 4.36 8.25391C4.36448 7.60496 4.48295 6.96185 4.71 6.35391C4.88605 5.93182 5.15627 5.55556 5.5 5.25391C5.80381 4.91007 6.17929 4.637 6.6 4.45391C7.20955 4.23395 7.852 4.11899 8.5 4.11391C9.5 4.11391 9.87 4.05391 12.5 4.05391C15.13 4.05391 15.5 4.05391 16.5 4.11391C17.1348 4.12119 17.7637 4.23615 18.36 4.45391C18.8144 4.62256 19.2223 4.89675 19.55 5.25391C19.8777 5.56108 20.1338 5.93664 20.3 6.35391C20.5223 6.96284 20.6373 7.60569 20.64 8.25391C20.69 9.25391 20.7 9.62391 20.7 12.2539C20.7 14.8839 20.69 15.2539 20.64 16.2539ZM12.5 7.12391C11.4858 7.12588 10.495 7.42843 9.65265 7.99332C8.81035 8.55822 8.15438 9.3601 7.76763 10.2977C7.38089 11.2352 7.28072 12.2664 7.47979 13.2608C7.67886 14.2553 8.16824 15.1684 8.88608 15.8849C9.60392 16.6013 10.518 17.0889 11.5129 17.2861C12.5077 17.4832 13.5387 17.381 14.4755 16.9924C15.4123 16.6039 16.2129 15.9463 16.7761 15.1029C17.3394 14.2595 17.64 13.2681 17.64 12.2539C17.6413 11.579 17.5092 10.9105 17.2512 10.2869C16.9933 9.66321 16.6146 9.09672 16.1369 8.61996C15.6592 8.1432 15.0919 7.76558 14.4678 7.50884C13.8436 7.25209 13.1749 7.12127 12.5 7.12391ZM12.5 15.5839C11.8414 15.5839 11.1976 15.3886 10.65 15.0227C10.1023 14.6568 9.67552 14.1367 9.42348 13.5282C9.17144 12.9198 9.1055 12.2502 9.23398 11.6043C9.36247 10.9583 9.67963 10.3649 10.1453 9.89924C10.611 9.43353 11.2044 9.11638 11.8503 8.98789C12.4963 8.8594 13.1659 8.92535 13.7743 9.17739C14.3828 9.42943 14.9029 9.85624 15.2688 10.4039C15.6347 10.9515 15.83 11.5953 15.83 12.2539C15.83 12.6912 15.7439 13.1242 15.5765 13.5282C15.4092 13.9323 15.1639 14.2994 14.8547 14.6086C14.5454 14.9178 14.1784 15.1631 13.7743 15.3304C13.3703 15.4978 12.9373 15.5839 12.5 15.5839Z" fill="white"/>
</svg>
