<svg width="25" height="25" viewBox="0 0 25 25" fill="none" xmlns="http://www.w3.org/2000/svg">
<path d="M6.5 9.25391H2.5V21.2539H6.5V9.25391Z" stroke="white" stroke-width="2" stroke-linecap="round" stroke-linejoin="round"/>
<path d="M16.5 8.25391C18.0913 8.25391 19.6174 8.88605 20.7426 10.0113C21.8679 11.1365 22.5 12.6626 22.5 14.2539V21.2539H18.5V14.2539C18.5 13.7235 18.2893 13.2148 17.9142 12.8397C17.5391 12.4646 17.0304 12.2539 16.5 12.2539C15.9696 12.2539 15.4609 12.4646 15.0858 12.8397C14.7107 13.2148 14.5 13.7235 14.5 14.2539V21.2539H10.5V14.2539C10.5 12.6626 11.1321 11.1365 12.2574 10.0113C13.3826 8.88605 14.9087 8.25391 16.5 8.25391V8.25391Z" stroke="white" stroke-width="2" stroke-linecap="round" stroke-linejoin="round"/>
<path d="M4.5 6.25391C5.60457 6.25391 6.5 5.35848 6.5 4.25391C6.5 3.14934 5.60457 2.25391 4.5 2.25391C3.39543 2.25391 2.5 3.14934 2.5 4.25391C2.5 5.35848 3.39543 6.25391 4.5 6.25391Z" stroke="white" stroke-width="2" stroke-linecap="round" stroke-linejoin="round"/>
</svg>
