<svg width="20" height="20" viewBox="0 0 20 20" fill="none" xmlns="http://www.w3.org/2000/svg">
<path d="M0.833313 16.6667V11.6667H5.83331" stroke="white" stroke-linecap="round" stroke-linejoin="round"/>
<path d="M19.1667 3.33325V8.33325H14.1667" stroke="white" stroke-linecap="round" stroke-linejoin="round"/>
<path d="M2.92498 7.49998C3.34762 6.30564 4.06592 5.23782 5.01287 4.39616C5.95981 3.55451 7.10453 2.96645 8.34022 2.68686C9.5759 2.40727 10.8623 2.44527 12.0793 2.79729C13.2963 3.14932 14.4044 3.80391 15.3 4.69998L19.1666 8.33331M0.833313 11.6666L4.69998 15.3C5.5956 16.1961 6.70362 16.8506 7.92065 17.2027C9.13768 17.5547 10.4241 17.5927 11.6597 17.3131C12.8954 17.0335 14.0401 16.4455 14.9871 15.6038C15.934 14.7621 16.6523 13.6943 17.075 12.5" stroke="white" stroke-linecap="round" stroke-linejoin="round"/>
</svg>
